<svg xmlns="http://www.w3.org/2000/svg" xmlns:xlink="http://www.w3.org/1999/xlink" width="500" zoomAndPan="magnify" viewBox="0 0 375 374.999991" height="500" preserveAspectRatio="xMidYMid meet" version="1.0"><defs><g/><clipPath id="503cbf5810"><path d="M 0 175.144531 L 375 175.144531 L 375 199.894531 L 0 199.894531 Z M 0 175.144531 " clip-rule="nonzero"/></clipPath></defs><g fill="#2c8ffa" fill-opacity="1"><g transform="translate(50.613282, 225.107827)"><g><path d="M 8.578125 -63.46875 C 8.578125 -64.351562 8.554688 -65.234375 8.515625 -66.109375 C 8.484375 -66.992188 8.46875 -67.910156 8.46875 -68.859375 L 26.0625 -72.8125 L 33 -72.8125 L 33 0 L 26.0625 0 L 26.0625 -67.4375 Z M 8.578125 -63.46875 "/></g></g></g><g fill="#2c8ffa" fill-opacity="1"><g transform="translate(104.28948, 225.107827)"><g><path d="M 23.4375 -12.984375 C 27.25 -8.066406 32.269531 -5.609375 38.5 -5.609375 C 44.507812 -5.609375 49.625 -8.484375 53.84375 -14.234375 C 58.0625 -19.992188 60.171875 -27.953125 60.171875 -38.109375 C 60.171875 -48.265625 58.117188 -56.054688 54.015625 -61.484375 C 47.992188 -66.253906 42.820312 -68.96875 38.5 -69.625 C 32.488281 -69.625 27.375 -66.726562 23.15625 -60.9375 C 18.9375 -55.144531 16.828125 -47.132812 16.828125 -36.90625 C 16.828125 -26.675781 19.03125 -18.703125 23.4375 -12.984375 Z M 9.34375 -36.796875 C 9.34375 -49.078125 12.164062 -58.628906 17.8125 -65.453125 C 23.46875 -72.273438 30.363281 -75.6875 38.5 -75.6875 C 46.9375 -75.6875 53.90625 -72.476562 59.40625 -66.0625 C 64.90625 -59.644531 67.65625 -50.363281 67.65625 -38.21875 C 67.65625 -26.082031 64.828125 -16.601562 59.171875 -9.78125 C 53.523438 -2.96875 46.632812 0.4375 38.5 0.4375 C 29.988281 0.4375 23.171875 -2.492188 18.046875 -8.359375 C 12.242188 -15.035156 9.34375 -24.515625 9.34375 -36.796875 Z M 9.34375 -36.796875 "/></g></g></g><g fill="#2c8ffa" fill-opacity="1"><g transform="translate(181.28402, 225.107827)"><g><path d="M 23.4375 -12.984375 C 27.25 -8.066406 32.269531 -5.609375 38.5 -5.609375 C 44.507812 -5.609375 49.625 -8.484375 53.84375 -14.234375 C 58.0625 -19.992188 60.171875 -27.953125 60.171875 -38.109375 C 60.171875 -48.265625 58.117188 -56.054688 54.015625 -61.484375 C 47.992188 -66.253906 42.820312 -68.96875 38.5 -69.625 C 32.488281 -69.625 27.375 -66.726562 23.15625 -60.9375 C 18.9375 -55.144531 16.828125 -47.132812 16.828125 -36.90625 C 16.828125 -26.675781 19.03125 -18.703125 23.4375 -12.984375 Z M 9.34375 -36.796875 C 9.34375 -49.078125 12.164062 -58.628906 17.8125 -65.453125 C 23.46875 -72.273438 30.363281 -75.6875 38.5 -75.6875 C 46.9375 -75.6875 53.90625 -72.476562 59.40625 -66.0625 C 64.90625 -59.644531 67.65625 -50.363281 67.65625 -38.21875 C 67.65625 -26.082031 64.828125 -16.601562 59.171875 -9.78125 C 53.523438 -2.96875 46.632812 0.4375 38.5 0.4375 C 29.988281 0.4375 23.171875 -2.492188 18.046875 -8.359375 C 12.242188 -15.035156 9.34375 -24.515625 9.34375 -36.796875 Z M 9.34375 -36.796875 "/></g></g></g><g fill="#2c8ffa" fill-opacity="1"><g transform="translate(258.278559, 225.107827)"><g><path d="M 44.21875 0 L 44.21875 -15.40625 L 11.21875 -15.40625 L 9.34375 -21.453125 L 44.21875 -72.8125 L 51.703125 -72.8125 L 51.703125 -21.453125 L 56.765625 -21.453125 L 56.875 -15.40625 L 51.703125 -15.40625 L 51.703125 0 Z M 44.21875 -21.453125 L 44.21875 -61.8125 L 16.71875 -21.453125 Z M 44.21875 -21.453125 "/></g></g></g><g clip-path="url(#503cbf5810)"><path fill="#ffffff" d="M 0.0625 175.144531 L 374.9375 175.144531 L 374.9375 199.894531 L 0.0625 199.894531 L 0.0625 175.144531 " fill-opacity="1" fill-rule="nonzero"/></g><g fill="#304945" fill-opacity="1"><g transform="translate(69.228134, 191.27555)"><g><path d="M 3.308594 -4.308594 L 1.144531 -7.839844 L -0.164062 -7.839844 L 2.75 -3.132812 L 2.75 0 L 3.871094 0 L 3.871094 -3.132812 L 6.816406 -7.839844 L 5.496094 -7.839844 Z M 3.308594 -4.308594 "/></g></g></g><g fill="#304945" fill-opacity="1"><g transform="translate(84.656468, 191.27555)"><g><path d="M 1.902344 -1.945312 L 5.023438 -1.945312 L 5.761719 0 L 6.949219 0 L 3.859375 -7.796875 L 3.046875 -7.796875 L -0.0429688 0 L 1.15625 0 Z M 4.617188 -2.992188 L 2.308594 -2.992188 L 3.464844 -6.023438 Z M 4.617188 -2.992188 "/></g></g></g><g fill="#304945" fill-opacity="1"><g transform="translate(100.425561, 191.27555)"><g><path d="M 5.3125 -4.640625 L 2.054688 -4.640625 L 2.054688 -7.761719 L 0.945312 -7.761719 L 0.945312 0 L 2.054688 0 L 2.054688 -3.539062 L 5.3125 -3.539062 L 5.3125 0 L 6.433594 0 L 6.433594 -7.761719 L 5.3125 -7.761719 Z M 5.3125 -4.640625 "/></g></g></g><g fill="#304945" fill-opacity="1"><g transform="translate(116.601366, 191.27555)"><g><path d="M 3.484375 -6.738281 L 4.914062 -6.738281 L 4.914062 -7.761719 L 0.945312 -7.761719 L 0.945312 -6.738281 L 2.375 -6.738281 L 2.375 -1.035156 L 0.945312 -1.035156 L 0.945312 0 L 4.914062 0 L 4.914062 -1.035156 L 3.484375 -1.035156 Z M 3.484375 -6.738281 "/></g></g></g><g fill="#304945" fill-opacity="1"><g transform="translate(131.249248, 191.27555)"><g><path d="M 1.902344 -1.945312 L 5.023438 -1.945312 L 5.761719 0 L 6.949219 0 L 3.859375 -7.796875 L 3.046875 -7.796875 L -0.0429688 0 L 1.15625 0 Z M 4.617188 -2.992188 L 2.308594 -2.992188 L 3.464844 -6.023438 Z M 4.617188 -2.992188 "/></g></g></g><g fill="#304945" fill-opacity="1"><g transform="translate(147.018341, 191.27555)"><g/></g></g><g fill="#304945" fill-opacity="1"><g transform="translate(158.555421, 191.27555)"><g><path d="M 5.640625 -1.109375 L 2.066406 -1.109375 L 2.066406 -3.375 L 5.550781 -3.375 L 5.550781 -4.496094 L 2.066406 -4.496094 L 2.066406 -6.664062 L 5.628906 -6.664062 L 5.628906 -7.773438 L 0.945312 -7.773438 L 0.945312 0 L 5.640625 0 Z M 5.640625 -1.109375 "/></g></g></g><g fill="#304945" fill-opacity="1"><g transform="translate(173.489113, 191.27555)"><g><path d="M 5.671875 -1.109375 L 2.054688 -1.109375 L 2.054688 -7.695312 L 0.945312 -7.695312 L 0.945312 0 L 5.671875 0 Z M 5.671875 -1.109375 "/></g></g></g><g fill="#304945" fill-opacity="1"><g transform="translate(188.016082, 191.27555)"><g><path d="M 4.144531 -7.773438 L 0.945312 -7.773438 L 0.945312 0 L 4.421875 0 C 5.894531 0 6.652344 -1.164062 6.652344 -2.320312 C 6.652344 -3.046875 6.332031 -3.859375 5.453125 -4.234375 C 5.980469 -4.628906 6.222656 -5.191406 6.222656 -5.75 C 6.222656 -6.773438 5.421875 -7.773438 4.144531 -7.773438 Z M 4.125 -4.628906 L 2.046875 -4.628906 L 2.046875 -6.71875 L 4.144531 -6.71875 C 4.773438 -6.71875 5.070312 -6.222656 5.070312 -5.707031 C 5.070312 -5.179688 4.738281 -4.628906 4.125 -4.628906 Z M 4.421875 -1.078125 L 2.046875 -1.078125 L 2.046875 -3.53125 L 4.421875 -3.53125 C 5.167969 -3.53125 5.542969 -2.914062 5.542969 -2.308594 C 5.542969 -1.703125 5.167969 -1.078125 4.421875 -1.078125 Z M 4.421875 -1.078125 "/></g></g></g><g fill="#304945" fill-opacity="1"><g transform="translate(203.873106, 191.27555)"><g><path d="M 1.902344 -1.945312 L 5.023438 -1.945312 L 5.761719 0 L 6.949219 0 L 3.859375 -7.796875 L 3.046875 -7.796875 L -0.0429688 0 L 1.15625 0 Z M 4.617188 -2.992188 L 2.308594 -2.992188 L 3.464844 -6.023438 Z M 4.617188 -2.992188 "/></g></g></g><g fill="#304945" fill-opacity="1"><g transform="translate(219.642194, 191.27555)"><g><path d="M 3.75 -3.902344 L 2.453125 -3.902344 L 2.453125 -3.375 L 5.253906 0 L 6.695312 0 L 4.265625 -2.890625 C 5.585938 -3.121094 6.257812 -4.15625 6.257812 -5.246094 C 6.257812 -6.464844 5.421875 -7.796875 3.75 -7.796875 L 0.945312 -7.796875 L 0.945312 0 L 2.046875 0 L 2.046875 -6.675781 L 3.75 -6.675781 C 4.683594 -6.675781 5.144531 -5.90625 5.144531 -5.246094 C 5.144531 -4.574219 4.683594 -3.902344 3.75 -3.902344 Z M 3.75 -3.902344 "/></g></g></g><g fill="#304945" fill-opacity="1"><g transform="translate(234.993572, 191.27555)"><g><path d="M 2.046875 0 L 2.046875 -7.695312 L 0.945312 -7.695312 L 0.945312 0 Z M 4.9375 -7.695312 L 2.253906 -4.125 L 2.253906 -3.5625 L 5.191406 0 L 6.617188 0 L 3.375 -3.871094 L 6.3125 -7.695312 Z M 4.9375 -7.695312 "/></g></g></g><g fill="#304945" fill-opacity="1"><g transform="translate(250.344951, 191.27555)"><g><path d="M 1.902344 -1.945312 L 5.023438 -1.945312 L 5.761719 0 L 6.949219 0 L 3.859375 -7.796875 L 3.046875 -7.796875 L -0.0429688 0 L 1.15625 0 Z M 4.617188 -2.992188 L 2.308594 -2.992188 L 3.464844 -6.023438 Z M 4.617188 -2.992188 "/></g></g></g><g fill="#304945" fill-opacity="1"><g transform="translate(266.114039, 191.27555)"><g><path d="M 0.386719 -3.847656 C 0.386719 -1.628906 2.15625 0.144531 4.375 0.144531 C 6.597656 0.144531 8.378906 -1.628906 8.378906 -3.847656 C 8.378906 -6.070312 6.597656 -7.851562 4.375 -7.851562 C 2.15625 -7.851562 0.386719 -6.070312 0.386719 -3.847656 Z M 1.527344 -3.847656 C 1.527344 -5.429688 2.792969 -6.707031 4.375 -6.707031 C 5.960938 -6.707031 7.234375 -5.429688 7.234375 -3.847656 C 7.234375 -2.265625 5.960938 -1 4.375 -1 C 2.792969 -1 1.527344 -2.265625 1.527344 -3.847656 Z M 1.527344 -3.847656 "/></g></g></g><g fill="#304945" fill-opacity="1"><g transform="translate(283.751809, 191.27555)"><g><path d="M 3.695312 0.078125 C 5.015625 0.078125 6.53125 -0.738281 6.53125 -2.296875 L 6.53125 -7.773438 L 5.410156 -7.773438 L 5.410156 -2.308594 C 5.410156 -1.460938 4.496094 -1.035156 3.695312 -1.035156 C 2.878906 -1.035156 1.96875 -1.453125 1.96875 -2.296875 L 1.96875 -7.773438 L 0.847656 -7.773438 L 0.847656 -2.308594 C 0.847656 -0.738281 2.34375 0.078125 3.695312 0.078125 Z M 3.695312 0.078125 "/></g></g></g><g fill="#304945" fill-opacity="1"><g transform="translate(299.92762, 191.27555)"><g><path d="M 3.484375 -6.738281 L 4.914062 -6.738281 L 4.914062 -7.761719 L 0.945312 -7.761719 L 0.945312 -6.738281 L 2.375 -6.738281 L 2.375 -1.035156 L 0.945312 -1.035156 L 0.945312 0 L 4.914062 0 L 4.914062 -1.035156 L 3.484375 -1.035156 Z M 3.484375 -6.738281 "/></g></g></g></svg>